<svg width="21" height="22" viewBox="0 0 21 22" fill="none" xmlns="http://www.w3.org/2000/svg">
<path d="M19.1309 7.12C19.7976 7.12 20.2509 7.25333 20.4909 7.52C20.7576 7.76 20.8909 8.21333 20.8909 8.88V12.92C20.8909 13.5867 20.7576 14.0533 20.4909 14.32C20.2509 14.56 19.7976 14.68 19.1309 14.68H14.2509V19.56C14.2509 20.2267 14.1176 20.6933 13.8509 20.96C13.6109 21.2 13.1576 21.32 12.4909 21.32H8.45094C7.78427 21.32 7.3176 21.2 7.05094 20.96C6.81094 20.6933 6.69094 20.2267 6.69094 19.56V14.68H1.85094C1.18427 14.68 0.717604 14.56 0.450938 14.32C0.210938 14.0533 0.0909376 13.5867 0.0909376 12.92V8.88C0.0909376 8.21333 0.210938 7.76 0.450938 7.52C0.717604 7.25333 1.18427 7.12 1.85094 7.12H6.69094V2.28C6.69094 1.61333 6.81094 1.16 7.05094 0.919999C7.3176 0.653333 7.78427 0.52 8.45094 0.52H12.4909C13.1576 0.52 13.6109 0.653333 13.8509 0.919999C14.1176 1.16 14.2509 1.61333 14.2509 2.28V7.12H19.1309Z" fill="white"/>
</svg>
